<svg width="201" height="23" viewBox="0 0 201 23" fill="none" xmlns="http://www.w3.org/2000/svg">
<path fill-rule="evenodd" clip-rule="evenodd" d="M64.2229 20.0496C64.2229 20.472 64.0065 20.6832 63.5738 20.6832H55.9509C55.7667 20.6832 55.6171 20.6304 55.502 20.5248C55.387 20.4192 55.3294 20.27 55.3294 20.0771C55.3294 19.9118 55.3686 19.7787 55.4468 19.6777C55.5251 19.5767 55.647 19.494 55.8128 19.4298L56.4066 19.2507C56.5539 19.2048 56.669 19.1175 56.7518 18.989C56.8347 18.8604 56.8761 18.6768 56.8761 18.438V10.4766C56.8761 10.348 56.8439 10.2401 56.7794 10.1529C56.715 10.0657 56.5953 9.98531 56.4204 9.91185L55.6194 9.65014C55.4077 9.54913 55.2558 9.44123 55.1637 9.32645C55.0716 9.21166 55.0256 9.07163 55.0256 8.90634C55.0256 8.74105 55.0832 8.6056 55.1982 8.5L55.2434 8.46287C55.3537 8.38202 55.4974 8.3416 55.6747 8.3416H56.8865L56.877 8.26111C56.8511 8.10012 56.7864 7.94559 56.6828 7.79752C56.5447 7.60009 56.3882 7.37741 56.2132 7.12948C56.0383 6.88154 55.8818 6.5854 55.7437 6.24105C55.6056 5.89669 55.5366 5.47199 55.5366 4.96694C55.5366 3.764 55.9509 2.80211 56.7794 2.08127C57.608 1.36042 58.7865 1 60.3147 1C61.2998 1 62.1169 1.15611 62.766 1.46832C63.415 1.78053 63.9007 2.19605 64.2229 2.71488C64.5451 3.2337 64.7062 3.80073 64.7062 4.41598C64.7062 5.14141 64.5152 5.68549 64.1331 6.04821C63.751 6.41093 63.2608 6.59229 62.6624 6.59229C61.9995 6.59229 61.4655 6.38108 61.0605 5.95868C60.6554 5.53627 60.4528 4.97612 60.4528 4.27824V3.05234C60.4528 2.73095 60.3884 2.49449 60.2595 2.34298C60.1306 2.19146 59.9327 2.1157 59.6657 2.1157C59.325 2.1157 59.0673 2.23049 58.8923 2.46006C58.7174 2.68962 58.6299 3.0202 58.6299 3.45179C58.6299 3.89256 58.7335 4.30579 58.9407 4.69146C59.1478 5.07714 59.4033 5.43756 59.7071 5.77273C60.0109 6.1079 60.3147 6.42929 60.6185 6.73691C60.9224 7.04454 61.1778 7.34757 61.385 7.64601L61.444 7.73547C61.5559 7.91426 61.6305 8.09222 61.6677 8.26935L61.6804 8.3416H63.7257C63.9375 8.3416 64.1009 8.38522 64.216 8.47245C64.3311 8.55969 64.3886 8.69513 64.3886 8.87879C64.3886 9.15427 64.2689 9.37925 64.0295 9.55372C63.7902 9.72819 63.4127 9.81543 62.8971 9.81543H61.9167V18.3967C61.9167 18.6538 61.9558 18.8512 62.034 18.989C62.1123 19.1267 62.2389 19.2094 62.4138 19.2369L63.6014 19.416C63.8132 19.4435 63.9697 19.5101 64.071 19.6157C64.1722 19.7213 64.2229 19.8659 64.2229 20.0496ZM37.0316 20.3664C36.203 20.7612 35.2363 20.9587 34.1315 20.9587C32.9623 20.9587 31.9151 20.7153 30.9898 20.2287C30.0646 19.742 29.3349 19.0372 28.801 18.1143C28.267 17.1915 28 16.0689 28 14.7466C28 13.4702 28.2785 12.3292 28.8355 11.3237C29.3925 10.3182 30.1681 9.52388 31.1624 8.94077C32.1567 8.35767 33.3167 8.06612 34.6425 8.06612C35.7749 8.06612 36.73 8.23141 37.508 8.56198C38.2859 8.89256 38.8798 9.34022 39.2894 9.90496C39.6991 10.4697 39.904 11.101 39.904 11.7989C39.904 12.5335 39.6899 13.1097 39.2618 13.5275C38.8337 13.9454 38.2514 14.1543 37.5149 14.1543C36.76 14.1543 36.1869 13.9408 35.7956 13.5138C35.4043 13.0868 35.2087 12.5014 35.2087 11.7576V10.876C35.2087 10.4261 35.1258 10.0863 34.9601 9.85675C34.7944 9.62718 34.5596 9.5124 34.2558 9.5124C33.952 9.5124 33.6781 9.63407 33.4341 9.87741C33.1902 10.1208 33.0014 10.4858 32.8679 10.9725C32.7344 11.4591 32.6677 12.0606 32.6677 12.7769C32.6677 13.8053 32.8219 14.6685 33.1303 15.3664C33.4387 16.0643 33.8599 16.5877 34.3939 16.9366C34.9279 17.2856 35.5355 17.4601 36.2168 17.4601C36.8981 17.4601 37.4689 17.3613 37.9292 17.1639C38.3895 16.9665 38.744 16.6336 38.9925 16.1653C39.1306 16.0367 39.2388 15.9541 39.3171 15.9174C39.3953 15.8806 39.4713 15.8623 39.5449 15.8623C39.637 15.8714 39.7129 15.9151 39.7728 15.9931C39.8326 16.0712 39.8579 16.1928 39.8487 16.3581C39.7751 17.258 39.4943 18.0523 39.0063 18.741C38.5184 19.4298 37.8601 19.9715 37.0316 20.3664ZM51.0691 20.0909C50.0334 20.6511 48.8297 20.9311 47.4579 20.9311C46.1229 20.9311 44.9514 20.6579 43.9433 20.1116C42.9352 19.5652 42.1504 18.8099 41.5888 17.8457C41.0272 16.8815 40.7464 15.7658 40.7464 14.4986C40.7464 13.2865 41.041 12.1961 41.6302 11.2273C42.2194 10.2585 43.0342 9.48944 44.0745 8.92011C45.1148 8.35078 46.3117 8.06612 47.665 8.06612C49.0092 8.06612 50.183 8.3416 51.1865 8.89256C52.19 9.44353 52.9726 10.2057 53.5342 11.1791C54.0958 12.1524 54.3766 13.2773 54.3766 14.5537C54.3766 15.7658 54.0842 16.8517 53.4996 17.8113C52.915 18.7709 52.1049 19.5308 51.0691 20.0909ZM48.5074 19.4986C48.222 19.5537 47.9435 19.4298 47.6719 19.1267C47.4003 18.8237 47.1426 18.3141 46.8986 17.5978C46.6546 16.8815 46.4222 15.9403 46.2012 14.7741C45.9895 13.6079 45.8698 12.6483 45.8422 11.8953C45.8145 11.1423 45.8698 10.573 46.0079 10.1873C46.146 9.80165 46.3577 9.57668 46.6431 9.5124C46.9285 9.4573 47.207 9.58127 47.4786 9.8843C47.7502 10.1873 48.0103 10.697 48.2589 11.4132C48.5074 12.1295 48.7422 13.0707 48.9631 14.2369C49.1841 15.4031 49.3061 16.365 49.3291 17.1226C49.3521 17.8802 49.2923 18.4518 49.1496 18.8375C49.0069 19.2231 48.7928 19.4435 48.5074 19.4986ZM73.213 20.6832C73.6457 20.6832 73.8621 20.472 73.8621 20.0496C73.8621 19.8659 73.8114 19.7213 73.7102 19.6157C73.6089 19.5101 73.4524 19.4435 73.2406 19.416L72.053 19.2369C71.8781 19.2094 71.7515 19.1267 71.6732 18.989C71.595 18.8512 71.5558 18.6538 71.5558 18.3967V9.81543H72.5363C73.0519 9.81543 73.4294 9.72819 73.6687 9.55372C73.9081 9.37925 74.0278 9.15427 74.0278 8.87879C74.0278 8.69513 73.9702 8.55969 73.8552 8.47245C73.7401 8.38522 73.5767 8.3416 73.3649 8.3416H71.3195L71.3069 8.26935C71.2696 8.09222 71.1951 7.91426 71.0832 7.73547L71.0242 7.64601C70.817 7.34757 70.5615 7.04454 70.2577 6.73691C69.9539 6.42929 69.6501 6.1079 69.3463 5.77273C69.0425 5.43756 68.787 5.07714 68.5798 4.69146C68.3727 4.30579 68.2691 3.89256 68.2691 3.45179C68.2691 3.0202 68.3566 2.68962 68.5315 2.46006C68.7064 2.23049 68.9642 2.1157 69.3049 2.1157C69.5718 2.1157 69.7698 2.19146 69.8987 2.34298C70.0276 2.49449 70.092 2.73095 70.092 3.05234V4.27824C70.092 4.97612 70.2946 5.53627 70.6996 5.95868C71.1047 6.38108 71.6387 6.59229 72.3016 6.59229C72.9 6.59229 73.3902 6.41093 73.7723 6.04821C74.1544 5.68549 74.3454 5.14141 74.3454 4.41598C74.3454 3.80073 74.1843 3.2337 73.8621 2.71488C73.5398 2.19605 73.0542 1.78053 72.4051 1.46832C71.7561 1.15611 70.939 1 69.9539 1C68.4256 1 67.2472 1.36042 66.4186 2.08127C65.59 2.80211 65.1758 3.764 65.1758 4.96694C65.1758 5.47199 65.2448 5.89669 65.3829 6.24105C65.521 6.5854 65.6775 6.88154 65.8524 7.12948C66.0274 7.37741 66.1839 7.60009 66.322 7.79752C66.4255 7.94559 66.4903 8.10012 66.5162 8.26111L66.5257 8.3416H65.3139C65.1366 8.3416 64.9929 8.38202 64.8826 8.46287L64.8374 8.5C64.7223 8.6056 64.6648 8.74105 64.6648 8.90634C64.6648 9.07163 64.7108 9.21166 64.8029 9.32645C64.895 9.44123 65.0469 9.54913 65.2586 9.65014L66.0596 9.91185C66.2345 9.98531 66.3542 10.0657 66.4186 10.1529C66.4831 10.2401 66.5153 10.348 66.5153 10.4766V18.438C66.5153 18.6768 66.4739 18.8604 66.391 18.989C66.3082 19.1175 66.1931 19.2048 66.0458 19.2507L65.452 19.4298C65.2862 19.494 65.1642 19.5767 65.086 19.6777C65.0077 19.7787 64.9686 19.9118 64.9686 20.0771C64.9686 20.27 65.0261 20.4192 65.1412 20.5248C65.2563 20.6304 65.4059 20.6832 65.59 20.6832H73.213ZM84.026 20.2837C83.133 20.7337 82.1019 20.9587 80.9326 20.9587C79.6437 20.9587 78.5113 20.6947 77.5354 20.1667C76.5596 19.6387 75.7977 18.8994 75.2499 17.949C74.7022 16.9986 74.4283 15.899 74.4283 14.6501C74.4283 13.337 74.6929 12.1869 75.2223 11.1997C75.7517 10.2126 76.5181 9.44353 77.5216 8.89256C78.5251 8.3416 79.7312 8.06612 81.1398 8.06612C82.3366 8.06612 83.3677 8.29798 84.2332 8.76171C85.0986 9.22544 85.7637 9.85445 86.2287 10.6488C86.6936 11.4431 86.9261 12.3269 86.9261 13.3003C86.9261 13.7227 86.811 14.0556 86.5808 14.2989L86.5259 14.3529C86.2991 14.5602 85.9859 14.6639 85.5865 14.6639H79.2736L79.2871 14.7275C79.4546 15.4837 79.7407 16.0892 80.1455 16.5441C80.836 17.32 81.7566 17.708 82.9074 17.708C83.6439 17.708 84.2953 17.5427 84.8615 17.2121C85.4277 16.8815 85.8075 16.4224 86.0008 15.8347C86.1113 15.7153 86.2102 15.635 86.2977 15.5937C86.3852 15.5523 86.4611 15.5317 86.5256 15.5317C86.6176 15.5317 86.6959 15.5684 86.7603 15.6419C86.8248 15.7153 86.857 15.8393 86.857 16.0138C86.857 16.9137 86.6084 17.7378 86.1113 18.4862C85.6141 19.2346 84.919 19.8338 84.026 20.2837ZM79.1295 13.5598C79.1163 13.3485 79.1098 13.1288 79.1098 12.9008C79.1098 12.0376 79.1742 11.3581 79.3031 10.8623C79.432 10.3664 79.5977 10.0152 79.8002 9.80854C80.0028 9.60193 80.2283 9.49862 80.4769 9.49862C80.7991 9.49862 81.1007 9.76951 81.3815 10.3113C81.6623 10.8531 81.8027 11.753 81.8027 13.011C81.8027 13.3967 81.6277 13.5895 81.2779 13.5895H79.1312L79.1295 13.5598ZM97.2281 20.2837C96.3351 20.7337 95.3039 20.9587 94.1347 20.9587C92.8458 20.9587 91.7134 20.6947 90.7375 20.1667C89.7616 19.6387 88.9998 18.8994 88.452 17.949C87.9042 16.9986 87.6303 15.899 87.6303 14.6501C87.6303 13.337 87.895 12.1869 88.4244 11.1997C88.9538 10.2126 89.7202 9.44353 90.7237 8.89256C91.7272 8.3416 92.9333 8.06612 94.3419 8.06612C95.5387 8.06612 96.5698 8.29798 97.4352 8.76171C98.3007 9.22544 98.9658 9.85445 99.4307 10.6488C99.8957 11.4431 100.128 12.3269 100.128 13.3003C100.128 13.7227 100.013 14.0556 99.7829 14.2989L99.728 14.3529C99.5011 14.5602 99.188 14.6639 98.7886 14.6639H92.4756L92.4892 14.7275C92.6567 15.4837 92.9428 16.0892 93.3476 16.5441C94.0381 17.32 94.9587 17.708 96.1095 17.708C96.846 17.708 97.4974 17.5427 98.0636 17.2121C98.6298 16.8815 99.0096 16.4224 99.2029 15.8347C99.3134 15.7153 99.4123 15.635 99.4998 15.5937C99.5873 15.5523 99.6632 15.5317 99.7277 15.5317C99.8197 15.5317 99.898 15.5684 99.9624 15.6419C100.027 15.7153 100.059 15.8393 100.059 16.0138C100.059 16.9137 99.8105 17.7378 99.3134 18.4862C98.8162 19.2346 98.1211 19.8338 97.2281 20.2837ZM92.3316 13.5598C92.3184 13.3485 92.3118 13.1288 92.3118 12.9008C92.3118 12.0376 92.3763 11.3581 92.5052 10.8623C92.6341 10.3664 92.7998 10.0152 93.0023 9.80854C93.2049 9.60193 93.4304 9.49862 93.679 9.49862C94.0012 9.49862 94.3027 9.76951 94.5835 10.3113C94.8643 10.8531 95.0047 11.753 95.0047 13.011C95.0047 13.3967 94.8298 13.5895 94.48 13.5895H92.3333L92.3316 13.5598ZM109.001 20.511C108.886 20.6258 108.718 20.6832 108.497 20.6832H101.592C101.389 20.6832 101.231 20.6281 101.116 20.5179C101 20.4077 100.943 20.2562 100.943 20.0634C100.943 19.9164 100.977 19.7948 101.046 19.6983C101.116 19.6019 101.21 19.5124 101.33 19.4298L101.647 19.3058C101.767 19.2507 101.85 19.1635 101.896 19.0441C101.942 18.9247 101.965 18.7273 101.965 18.4518V11.4545C101.965 11.2342 101.94 11.0758 101.889 10.9793C101.838 10.8829 101.753 10.8072 101.633 10.7521L101.274 10.7107C101.145 10.6373 101.051 10.5592 100.991 10.4766C100.931 10.3939 100.901 10.2883 100.901 10.1598C100.901 10.0129 100.948 9.882 101.04 9.76722C101.132 9.65243 101.288 9.55372 101.509 9.47108L105.431 8.35537C105.661 8.26354 105.855 8.19927 106.011 8.16253C106.168 8.1258 106.301 8.10744 106.412 8.10744C106.568 8.10744 106.685 8.16253 106.764 8.27273L106.789 8.31269C106.853 8.42787 106.898 8.61198 106.923 8.86501L107.028 11.0054L107.052 10.9263C107.098 10.7773 107.15 10.6342 107.206 10.4972C107.542 9.67539 107.986 9.06474 108.538 8.66529C109.091 8.26584 109.694 8.06612 110.347 8.06612C111.139 8.06612 111.747 8.32782 112.17 8.85124C112.594 9.37466 112.805 10.169 112.805 11.2342C112.805 12.2902 112.585 13.0661 112.143 13.562C111.701 14.0579 111.13 14.3058 110.43 14.3058C109.749 14.3058 109.245 14.1359 108.918 13.7961C108.591 13.4564 108.419 12.9743 108.4 12.3499L108.386 11.7989C108.377 11.5877 108.336 11.4224 108.262 11.303C108.188 11.1837 108.069 11.124 107.903 11.124C107.737 11.124 107.592 11.2089 107.468 11.3788C107.344 11.5487 107.249 11.8081 107.185 12.157C107.12 12.506 107.088 12.9513 107.088 13.4931V18.3416C107.088 18.5987 107.13 18.803 107.213 18.9545C107.295 19.1061 107.424 19.2002 107.599 19.2369L108.635 19.4435C108.828 19.4711 108.966 19.5422 109.049 19.657C109.132 19.7718 109.174 19.9073 109.174 20.0634C109.174 20.247 109.116 20.3962 109.001 20.511ZM120.042 20.9311C121.414 20.9311 122.617 20.6511 123.653 20.0909C124.689 19.5308 125.499 18.7709 126.084 17.8113C126.668 16.8517 126.96 15.7658 126.96 14.5537C126.96 13.2773 126.68 12.1524 126.118 11.1791C125.556 10.2057 124.774 9.44353 123.77 8.89256C122.767 8.3416 121.593 8.06612 120.249 8.06612C118.896 8.06612 117.699 8.35078 116.658 8.92011C115.618 9.48944 114.803 10.2585 114.214 11.2273C113.625 12.1961 113.33 13.2865 113.33 14.4986C113.33 15.7658 113.611 16.8815 114.173 17.8457C114.734 18.8099 115.519 19.5652 116.527 20.1116C117.535 20.6579 118.707 20.9311 120.042 20.9311ZM120.256 19.1267C120.527 19.4298 120.806 19.5537 121.091 19.4986C121.377 19.4435 121.591 19.2231 121.733 18.8375C121.876 18.4518 121.936 17.8802 121.913 17.1226C121.89 16.365 121.768 15.4031 121.547 14.2369C121.326 13.0707 121.091 12.1295 120.843 11.4132C120.594 10.697 120.334 10.1873 120.062 9.8843C119.791 9.58127 119.512 9.4573 119.227 9.5124C118.942 9.57668 118.73 9.80165 118.592 10.1873C118.454 10.573 118.398 11.1423 118.426 11.8953C118.454 12.6483 118.573 13.6079 118.785 14.7741C119.006 15.9403 119.238 16.8815 119.482 17.5978C119.726 18.3141 119.984 18.8237 120.256 19.1267ZM137.912 20.9587C138.685 20.9587 139.32 20.8186 139.817 20.5386C140.314 20.2585 140.685 19.9256 140.929 19.5399C141.173 19.1543 141.295 18.8007 141.295 18.4793C141.295 18.3416 141.265 18.2268 141.205 18.135C141.145 18.0432 141.065 17.9972 140.963 17.9972C140.917 17.9972 140.876 18.0064 140.839 18.0248C140.802 18.0432 140.77 18.0707 140.743 18.1074C140.696 18.2727 140.625 18.3875 140.528 18.4518C140.432 18.5161 140.328 18.5482 140.218 18.5482C140.061 18.5482 139.944 18.4954 139.866 18.3898C139.787 18.2842 139.748 18.1442 139.748 17.9697V11.8815C139.748 10.6694 139.332 9.73049 138.498 9.06474C137.665 8.39899 136.36 8.06612 134.583 8.06612C133.202 8.06612 132.049 8.236 131.124 8.57576C130.199 8.91552 129.504 9.3494 129.039 9.87741C128.574 10.4054 128.341 10.9449 128.341 11.4959C128.341 12.0836 128.514 12.5312 128.859 12.8388C129.204 13.1465 129.704 13.3003 130.358 13.3003C131.159 13.3003 131.789 13.0868 132.25 12.6598C132.71 12.2328 132.94 11.6795 132.94 11V9.95317C132.94 9.69605 133.021 9.49633 133.182 9.35399C133.343 9.21166 133.543 9.1405 133.782 9.1405C134.04 9.1405 134.245 9.23462 134.397 9.42286C134.549 9.61111 134.625 9.86593 134.625 10.1873L134.624 14.2025L134.551 14.1868C134.329 14.1446 134.072 14.1205 133.78 14.1145L133.631 14.1129C131.651 14.1129 130.176 14.4435 129.204 15.1047C128.233 15.7658 127.748 16.6887 127.748 17.8733C127.748 18.7732 128.081 19.5124 128.749 20.0909C129.416 20.6694 130.302 20.9587 131.407 20.9587C132.236 20.9587 133.009 20.7911 133.727 20.4559C134.266 20.2045 134.703 19.8744 135.04 19.4655L135.059 19.4416L135.079 19.5032C135.185 19.801 135.38 20.0677 135.663 20.3035L135.75 20.3733C136.261 20.7635 136.982 20.9587 137.912 20.9587ZM133.154 18.3623C133.38 18.6607 133.677 18.8099 134.045 18.8099L134.124 18.8072C134.281 18.7965 134.433 18.7534 134.579 18.6781L134.624 18.653V15.1185L134.556 15.0978C134.399 15.0565 134.215 15.0358 134.003 15.0358C133.644 15.0358 133.357 15.2011 133.14 15.5317C132.924 15.8623 132.816 16.3489 132.816 16.9917C132.816 17.607 132.929 18.0638 133.154 18.3623ZM147.647 21C149.286 21 150.543 20.6281 151.417 19.8843C152.292 19.1405 152.729 18.1258 152.729 16.8402C152.729 16.0597 152.582 15.3756 152.287 14.7879C151.993 14.2002 151.477 13.6791 150.741 13.2245C150.004 12.77 148.969 12.3407 147.634 11.9366C147.136 11.7805 146.752 11.6221 146.48 11.4614C146.209 11.3007 146.022 11.1286 145.921 10.9449C145.82 10.7612 145.769 10.5638 145.769 10.3526C145.769 10.0404 145.884 9.78788 146.114 9.59504C146.345 9.4022 146.685 9.30579 147.136 9.30579C147.762 9.30579 148.354 9.5124 148.911 9.92562C149.468 10.3388 150.082 11.0459 150.755 12.0468C150.929 12.258 151.104 12.4118 151.279 12.5083C151.454 12.6047 151.62 12.6345 151.776 12.5978C151.97 12.5427 152.09 12.4164 152.136 12.219C152.182 12.0216 152.172 11.7392 152.108 11.3719L151.749 8.83747C151.712 8.57117 151.643 8.38292 151.542 8.27273C151.44 8.16253 151.307 8.10744 151.141 8.10744C150.994 8.10744 150.81 8.15794 150.589 8.25895C150.368 8.35996 150.149 8.46327 149.933 8.56887C149.717 8.67447 149.553 8.72727 149.443 8.72727C149.341 8.72727 149.192 8.67218 148.994 8.56198C148.796 8.45179 148.517 8.3416 148.158 8.23141C147.799 8.12121 147.334 8.06612 146.764 8.06612C145.815 8.06612 144.961 8.236 144.202 8.57576C143.442 8.91552 142.844 9.39991 142.407 10.0289C141.969 10.6579 141.751 11.4086 141.751 12.281C141.751 13.0523 141.914 13.7273 142.241 14.3058C142.568 14.8843 143.067 15.3802 143.739 15.7934C144.411 16.2066 145.258 16.5418 146.28 16.7989C146.943 16.9734 147.452 17.1501 147.806 17.3292C148.161 17.5083 148.405 17.7034 148.538 17.9146C148.672 18.1258 148.738 18.36 148.738 18.6171C148.738 18.9568 148.623 19.2369 148.393 19.4573C148.163 19.6777 147.813 19.7879 147.344 19.7879C146.902 19.7879 146.48 19.6938 146.08 19.5055C145.679 19.3173 145.268 18.9936 144.844 18.5344C144.421 18.0753 143.946 17.4463 143.422 16.6474C143.265 16.4362 143.088 16.2893 142.89 16.2066C142.692 16.124 142.492 16.1286 142.289 16.2204C142.096 16.2938 141.972 16.45 141.916 16.6887C141.861 16.9275 141.875 17.2213 141.958 17.5702L142.386 20.3113C142.45 20.5868 142.542 20.7704 142.662 20.8623C142.782 20.9541 142.911 21 143.049 21C143.205 21 143.396 20.9495 143.622 20.8485L144.299 20.5455C144.524 20.4444 144.706 20.3939 144.844 20.3939C144.982 20.3939 145.164 20.4444 145.389 20.5455C145.615 20.6465 145.91 20.7475 146.273 20.8485C146.637 20.9495 147.095 21 147.647 21ZM160.739 20.4835C160.131 20.8003 159.413 20.9587 158.585 20.9587C157.185 20.9587 156.133 20.6235 155.429 19.9532C154.725 19.2828 154.373 18.2268 154.373 16.7851V10.5592C154.373 10.3664 154.354 10.2195 154.317 10.1185C154.281 10.0174 154.189 9.9348 154.041 9.87052L153.392 9.66391C153.236 9.59045 153.134 9.50092 153.088 9.39532C153.042 9.28972 153.019 9.15886 153.019 9.00276C153.019 8.80992 153.088 8.65152 153.226 8.52755C153.365 8.40358 153.535 8.3416 153.737 8.3416H154.414C154.497 8.3416 154.584 8.30946 154.677 8.24518C154.769 8.1809 154.893 8.05234 155.049 7.8595L157.604 5.75207C157.788 5.53168 157.972 5.3641 158.157 5.24931C158.341 5.13453 158.525 5.07714 158.709 5.07714C158.921 5.07714 159.086 5.14141 159.206 5.26997L159.244 5.31555C159.338 5.44433 159.386 5.63116 159.386 5.87603L159.385 8.3416H162.272C162.474 8.3416 162.631 8.38522 162.741 8.47245C162.852 8.55969 162.907 8.69513 162.907 8.87879C162.907 9.1359 162.792 9.35629 162.562 9.53995L162.51 9.57789C162.278 9.73625 161.927 9.81543 161.457 9.81543H159.385L159.386 16.0964C159.386 16.7851 159.503 17.2948 159.738 17.6253C159.973 17.9559 160.315 18.1212 160.767 18.1212C160.96 18.1212 161.139 18.0799 161.305 17.9972C161.471 17.9146 161.62 17.8067 161.754 17.6736C161.887 17.5404 162.014 17.3912 162.134 17.2259C162.253 17.0606 162.369 16.8953 162.479 16.73C162.571 16.6933 162.652 16.7094 162.721 16.7782C162.79 16.8471 162.82 16.9871 162.81 17.1983C162.746 17.9421 162.537 18.5964 162.182 19.1612C161.828 19.7259 161.347 20.1667 160.739 20.4835ZM169.784 20.9587C170.954 20.9587 171.985 20.7337 172.878 20.2837C173.771 19.8338 174.466 19.2346 174.963 18.4862C175.46 17.7378 175.709 16.9137 175.709 16.0138C175.709 15.8393 175.676 15.7153 175.612 15.6419C175.548 15.5684 175.469 15.5317 175.377 15.5317C175.313 15.5317 175.237 15.5523 175.149 15.5937C175.062 15.635 174.963 15.7153 174.853 15.8347C174.659 16.4224 174.279 16.8815 173.713 17.2121C173.147 17.5427 172.496 17.708 171.759 17.708C170.608 17.708 169.688 17.32 168.997 16.5441C168.592 16.0892 168.306 15.4837 168.139 14.7275L168.125 14.6639H174.438C174.838 14.6639 175.151 14.5602 175.378 14.3529L175.433 14.2989C175.663 14.0556 175.778 13.7227 175.778 13.3003C175.778 12.3269 175.545 11.4431 175.08 10.6488C174.615 9.85445 173.95 9.22544 173.085 8.76171C172.219 8.29798 171.188 8.06612 169.991 8.06612C168.583 8.06612 167.377 8.3416 166.373 8.89256C165.37 9.44353 164.603 10.2126 164.074 11.1997C163.545 12.1869 163.28 13.337 163.28 14.6501C163.28 15.899 163.554 16.9986 164.102 17.949C164.649 18.8994 165.411 19.6387 166.387 20.1667C167.363 20.6947 168.495 20.9587 169.784 20.9587ZM167.961 12.9008C167.961 13.1288 167.968 13.3485 167.981 13.5598L167.983 13.5895H170.13C170.479 13.5895 170.654 13.3967 170.654 13.011C170.654 11.753 170.514 10.8531 170.233 10.3113C169.952 9.76951 169.651 9.49862 169.329 9.49862C169.08 9.49862 168.854 9.60193 168.652 9.80854C168.449 10.0152 168.284 10.3664 168.155 10.8623C168.026 11.3581 167.961 12.0376 167.961 12.9008ZM184.146 20.6832C184.367 20.6832 184.535 20.6258 184.65 20.511C184.766 20.3962 184.823 20.247 184.823 20.0634C184.823 19.9073 184.782 19.7718 184.699 19.657C184.616 19.5422 184.478 19.4711 184.285 19.4435L183.249 19.2369C183.074 19.2002 182.945 19.1061 182.862 18.9545C182.779 18.803 182.738 18.5987 182.738 18.3416V13.4931C182.738 12.9513 182.77 12.506 182.835 12.157C182.899 11.8081 182.993 11.5487 183.118 11.3788C183.242 11.2089 183.387 11.124 183.553 11.124C183.718 11.124 183.838 11.1837 183.912 11.303C183.985 11.4224 184.027 11.5877 184.036 11.7989L184.05 12.3499C184.068 12.9743 184.241 13.4564 184.568 13.7961C184.894 14.1359 185.399 14.3058 186.08 14.3058C186.779 14.3058 187.35 14.0579 187.792 13.562C188.234 13.0661 188.455 12.2902 188.455 11.2342C188.455 10.169 188.243 9.37466 187.82 8.85124C187.396 8.32782 186.789 8.06612 185.997 8.06612C185.343 8.06612 184.74 8.26584 184.188 8.66529C183.635 9.06474 183.191 9.67539 182.855 10.4972C182.799 10.6342 182.748 10.7773 182.701 10.9263L182.677 11.0057L182.572 8.86501C182.548 8.61198 182.503 8.42787 182.438 8.31269L182.413 8.27273C182.335 8.16253 182.218 8.10744 182.061 8.10744C181.951 8.10744 181.817 8.1258 181.661 8.16253C181.504 8.19927 181.311 8.26354 181.081 8.35537L177.159 9.47108C176.938 9.55372 176.781 9.65243 176.689 9.76722C176.597 9.882 176.551 10.0129 176.551 10.1598C176.551 10.2883 176.581 10.3939 176.641 10.4766C176.701 10.5592 176.795 10.6373 176.924 10.7107L177.283 10.7521C177.403 10.8072 177.488 10.8829 177.538 10.9793C177.589 11.0758 177.614 11.2342 177.614 11.4545V18.4518C177.614 18.7273 177.591 18.9247 177.545 19.0441C177.499 19.1635 177.417 19.2507 177.297 19.3058L176.979 19.4298C176.86 19.5124 176.765 19.6019 176.696 19.6983C176.627 19.7948 176.593 19.9164 176.593 20.0634C176.593 20.2562 176.65 20.4077 176.765 20.5179C176.88 20.6281 177.039 20.6832 177.242 20.6832H184.146ZM198.688 19.8843C197.813 20.6281 196.557 21 194.918 21C194.366 21 193.908 20.9495 193.544 20.8485C193.18 20.7475 192.886 20.6465 192.66 20.5455C192.435 20.4444 192.253 20.3939 192.115 20.3939C191.977 20.3939 191.795 20.4444 191.569 20.5455L190.892 20.8485C190.667 20.9495 190.476 21 190.319 21C190.181 21 190.052 20.9541 189.933 20.8623C189.813 20.7704 189.721 20.5868 189.657 20.3113L189.228 17.5702C189.146 17.2213 189.132 16.9275 189.187 16.6887C189.242 16.45 189.367 16.2938 189.56 16.2204C189.762 16.1286 189.963 16.124 190.161 16.2066C190.359 16.2893 190.536 16.4362 190.692 16.6474C191.217 17.4463 191.691 18.0753 192.115 18.5344C192.538 18.9936 192.95 19.3173 193.351 19.5055C193.751 19.6938 194.172 19.7879 194.614 19.7879C195.084 19.7879 195.434 19.6777 195.664 19.4573C195.894 19.2369 196.009 18.9568 196.009 18.6171C196.009 18.36 195.942 18.1258 195.809 17.9146C195.675 17.7034 195.431 17.5083 195.077 17.3292C194.722 17.1501 194.214 16.9734 193.551 16.7989C192.529 16.5418 191.682 16.2066 191.01 15.7934C190.338 15.3802 189.838 14.8843 189.512 14.3058C189.185 13.7273 189.021 13.0523 189.021 12.281C189.021 11.4086 189.24 10.6579 189.677 10.0289C190.115 9.39991 190.713 8.91552 191.472 8.57576C192.232 8.236 193.086 8.06612 194.034 8.06612C194.605 8.06612 195.07 8.12121 195.429 8.23141C195.788 8.3416 196.067 8.45179 196.264 8.56198C196.462 8.67218 196.612 8.72727 196.713 8.72727C196.824 8.72727 196.987 8.67447 197.204 8.56887C197.42 8.46327 197.639 8.35996 197.859 8.25895C198.08 8.15794 198.265 8.10744 198.412 8.10744C198.578 8.10744 198.711 8.16253 198.812 8.27273C198.914 8.38292 198.983 8.57117 199.02 8.83747L199.379 11.3719C199.443 11.7392 199.452 12.0216 199.406 12.219C199.36 12.4164 199.24 12.5427 199.047 12.5978C198.891 12.6345 198.725 12.6047 198.55 12.5083C198.375 12.4118 198.2 12.258 198.025 12.0468C197.353 11.0459 196.739 10.3388 196.182 9.92562C195.625 9.5124 195.033 9.30579 194.407 9.30579C193.956 9.30579 193.615 9.4022 193.385 9.59504C193.155 9.78788 193.04 10.0404 193.04 10.3526C193.04 10.5638 193.091 10.7612 193.192 10.9449C193.293 11.1286 193.48 11.3007 193.751 11.4614C194.023 11.6221 194.407 11.7805 194.904 11.9366C196.239 12.3407 197.275 12.77 198.011 13.2245C198.748 13.6791 199.263 14.2002 199.558 14.7879C199.853 15.3756 200 16.0597 200 16.8402C200 18.1258 199.563 19.1405 198.688 19.8843Z" fill="#333D4B"/>
<path fill-rule="evenodd" clip-rule="evenodd" d="M12.8032 4.50223C9.72806 1.57594 5.16985 1.15468 2.64203 3.56472C0.112903 5.97351 0.555205 10.3148 3.62507 13.2424C4.44406 14.0224 5.38772 14.6186 6.38389 15.0461C6.71069 13.2374 7.6478 11.4986 9.07051 10.0711C8.59934 9.91107 8.11635 9.77606 7.61236 9.64481C4.6278 8.8648 3.14471 6.49351 2.79822 3.71347C3.0848 4.04168 3.34572 4.38595 3.60587 4.72919C4.11062 5.39517 4.61248 6.05732 5.29322 6.59101C6.35219 7.42146 7.51457 7.74204 8.78623 8.09275C8.83533 8.10629 8.88459 8.11988 8.93402 8.13354C9.53644 8.29979 10.0601 8.54605 10.5405 8.83355C11.8031 7.95479 13.2271 7.36978 14.6971 7.12852C14.2495 6.17976 13.6222 5.28225 12.8032 4.50223ZM7.60317 15.7412C7.79873 13.9299 8.72009 12.1586 10.1966 10.7523C13.2717 7.82603 17.8299 7.40353 20.3578 9.81481C22.8869 12.2236 22.4459 16.5649 19.3721 19.4925C17.8956 20.8987 16.0358 21.7762 14.134 21.9637C13.8807 21.9875 13.63 22 13.3846 22C11.7493 22 10.2885 21.4537 9.21226 20.4287C7.97329 19.25 7.40105 17.5849 7.60317 15.7412ZM12.101 17.2274C13.109 16.4949 14.1996 16.2049 15.3861 15.8962C18.3707 15.1161 19.8525 12.7449 20.2003 9.96482C19.9161 10.2912 19.6571 10.6331 19.3988 10.974L19.3988 10.974C18.8926 11.6424 18.3893 12.3068 17.7053 12.8424C16.643 13.6742 15.478 13.9953 14.2006 14.3473L14.0645 14.3849C11.1442 15.1924 9.7005 17.5437 9.36713 20.28C9.65479 19.9508 9.91829 19.6091 10.1804 19.2692L10.1805 19.2691C10.7495 18.5312 11.3121 17.8017 12.101 17.2274Z" fill="#0E8784"/>
</svg>
